<?xml version="1.0" encoding="utf-8"?>
<!-- Generator: Adobe Illustrator 20.1.0, SVG Export Plug-In . SVG Version: 6.00 Build 0)  -->
<svg version="1.1" id="图层_1" xmlns="http://www.w3.org/2000/svg" xmlns:xlink="http://www.w3.org/1999/xlink" x="0px" y="0px"
	 viewBox="0 0 98 68" style="enable-background:new 0 0 98 68;" xml:space="preserve">
<style type="text/css">
	.st0{fill:#FFFFFF;}
</style>
<g>
	<path class="st0" d="M21.8,24.8v4.9h-6.8v-1.8h-4.4v12.6h4.4v-1.8h6.8v4.9l-3.6,3.6H7.5l-3.6-3.6V24.8l3.6-3.6h10.7L21.8,24.8z"/>
	<path class="st0" d="M32.9,21.2v6.8h-1.3v2.9h5.8v-2.9h-1.3v-6.8h9.3v6.8h-1.3v12.6h1.3v6.8h-9.3v-6.8h1.3v-2.9h-5.8v2.9h1.3v6.8
		h-9.3v-6.8h1.3V27.9h-1.3v-6.8H32.9z"/>
	<path class="st0" d="M56.8,40.5v6.8h-9.5v-6.8h1.3l4.9-19.4H64l4.9,19.4h1.3v6.8h-9.5v-6.8h1.3l-0.4-1.8H56l-0.5,1.8H56.8z
		 M58.7,27.9l-1.2,4.8h2.4L58.7,27.9z"/>
	<path class="st0" d="M87,34.1v-6.2h-1.3v-6.8h9.3v6.8h-1.3v19.4H87l-7.1-13.1v6.4h1.3v6.8h-9.3v-6.8h1.3V27.9h-1.3v-6.8h8L87,34.1z
		"/>
</g>
</svg>
