<?xml version="1.0" encoding="utf-8"?>
<!-- Generator: Adobe Illustrator 20.1.0, SVG Export Plug-In . SVG Version: 6.00 Build 0)  -->
<svg version="1.1" id="图层_1" xmlns="http://www.w3.org/2000/svg" xmlns:xlink="http://www.w3.org/1999/xlink" x="0px" y="0px"
	 viewBox="0 0 98 68" style="enable-background:new 0 0 98 68;" xml:space="preserve">
<style type="text/css">
	.st0{fill:#FFFFFF;}
</style>
<g>
	<path class="st0" d="M38.1,60.4h-5.1V40.2L5.5,54.9v5.5H0.4v-53h5.1v31.1l27.4-14.7V7.4h5.1V60.4z M5.5,44.3V49l27.4-14.7v-4.7
		L5.5,44.3z"/>
	<path class="st0" d="M71.2,60.4c-7.1,0-13.2-2.4-18.3-7.3c-0.1-0.2-0.3-0.3-0.4-0.4c-5-5.4-7.6-11.7-7.7-18.7
		c0-7.1,2.4-13.2,7.3-18.3c0.1-0.2,0.3-0.3,0.4-0.4c5.4-5,11.7-7.6,18.7-7.8c7.1,0,13.2,2.4,18.3,7.3c0.1,0.2,0.3,0.3,0.4,0.5
		c5,5.4,7.6,11.6,7.7,18.7c0,7.1-2.4,13.2-7.3,18.3c-0.1,0.2-0.3,0.3-0.4,0.5C84.5,57.6,78.2,60.2,71.2,60.4z M58.9,51.2
		c3.7,2.6,7.8,3.9,12.3,3.9c5.9,0,10.9-2.1,15-6.2c4.1-4.2,6.2-9.2,6.3-15c0-5.9-2.1-10.9-6.2-15c-4.2-4.1-9.2-6.2-15.1-6.3
		c-5.8,0-10.8,2.1-15,6.2c-4.1,4.2-6.2,9.2-6.3,15.1c0,5.2,1.7,9.8,5.1,13.7L80.8,21l3.7,3.7L58.9,51.2z"/>
</g>
</svg>
