<?xml version="1.0" encoding="utf-8"?>
<!-- Generator: Adobe Illustrator 20.1.0, SVG Export Plug-In . SVG Version: 6.00 Build 0)  -->
<svg version="1.1" id="图层_1" xmlns="http://www.w3.org/2000/svg" xmlns:xlink="http://www.w3.org/1999/xlink" x="0px" y="0px"
	 viewBox="0 0 98 68" style="enable-background:new 0 0 98 68;" xml:space="preserve">
<style type="text/css">
	.st0{fill:#FFFFFF;}
</style>
<g>
	<path class="st0" d="M25.6,18c0,0.2,0,0.3,0,0.3c0,0.1,0,0.3-0.1,0.4l0.1,0c0,0.5-0.1,0.9-0.2,1.3c-0.2,0.6-0.3,1.2-0.4,1.4
		s-0.2,0.5-0.4,0.8v0c0.1-0.1,0.1-0.1,0.1-0.2l0.1,0c0,0,0.1-0.1,0.1-0.1h0.1c0,0,0,0-0.1,0.1c-0.1,0-0.1,0.2-0.2,0.3
		c-0.1,0.1-0.2,0.3-0.4,0.6h-0.1c-0.1,0.1-0.2,0.3-0.4,0.4c-0.2,0.1-0.2,0.1-0.2,0.1s0,0-0.2,0.1c-0.2,0.3-0.4,0.4-0.7,0.6
		c-0.4,0.2-0.7,0.3-1.1,0.5c-0.1,0-0.1,0-0.2,0c-0.1,0-0.2,0-0.3,0.1h-0.1c-0.1,0-0.1,0-0.2,0c0.1,0,0.2,0,0.4,0h0.1
		c0.1,0,0.2,0,0.4-0.1v0c-0.2,0.1-0.4,0.2-0.9,0.2c-0.2,0-0.2,0.1-0.4,0.1c-0.2,0.1-0.3,0.3-0.4,0.4c-0.1,0.1-0.2,0.1-0.2,0.2
		c-0.4,0.5-0.8,0.9-1.1,1.3c-0.1,0.2-0.2,0.3-0.4,0.3l0.1,0.1c-0.2,0.1-0.2,0.2-0.4,0.4c-0.2,0.2-0.4,0.5-0.6,0.7
		C17,28.8,17,28.9,16.9,29c-0.2,0.1-0.2,0.2-0.3,0.3C15.2,31,14,32.6,13,34.2c-0.7,0.8-1.1,1.5-1.6,2.3c-0.5,0.9-1,1.7-1.4,2.5
		c-0.2,0.3-0.2,0.4-0.3,0.6l-0.1,0c-0.1,0-0.1,0.1-0.2,0.3c-0.2,0.4-0.3,0.6-0.4,0.9c-0.2,0.3-0.3,0.6-0.4,1c-0.3,0.7-0.4,1.4-0.5,2
		c0,0.1,0,0.1,0,0.2c0,0,0,0,0,0l0.1,0c0,0,0,0,0,0c0,0,0,0,0-0.1v-0.4c0-0.1,0-0.1,0.1-0.1h0.1c0,0,0,0.1-0.1,0.2c0,0,0,0.1,0,0.1
		c0,0.2,0,0.3,0,0.5c0,0,0,0,0,0c0-0.1,0.1-0.2,0.1-0.3l0.1-0.3c0,0,0,0,0,0h0.1v0c0,0,0,0.1,0,0.3c-0.1,0-0.1,0.1-0.1,0.2l0.1,0
		c0-0.1,0-0.2,0-0.2h0.1c0,0,0,0,0,0.1c0,0,0,0,0,0l0.1,0v0c0,0,0,0,0,0.1l0.1,0.2c0,0,0.1,0.1,0.1,0.1s0,0.1,0.1,0.1V45
		c0,0.1,0,0.2,0,0.3c0.1,0,0.1,0.1,0.1,0.2v0c0,0,0,0,0,0h0.1c0,0,0,0,0.1,0.2L9,45.6v0c0,0,0,0,0,0.1c0.1,0,0.1,0,0.1,0
		c0,0.1,0,0.2,0.1,0.3v0c0.1,0,0.1,0,0.1,0c0,0,0,0-0.1-0.1l0.1,0c0.1,0.1,0.1,0.1,0.1,0.2c0.1,0,0.1,0.1,0.1,0.1c0.1,0,0.1,0,0.1,0
		c0,0,0,0,0,0c0,0,0,0,0.1,0h0.1c0.1,0.1,0.2,0.2,0.2,0.2l0.1,0.1c0.1,0,0.1,0,0.1,0c0.1,0,0.2,0,0.3,0c0.1,0,0.1,0,0.2,0.1
		c0,0,0.1,0,0.1,0c0.4,0.2,0.9,0.3,1.5,0.3c0.2,0,0.5,0,0.9,0c0,0,0.1,0,0.1,0c0.1,0,0.2,0,0.3,0c0.1,0,0.1,0,0.1,0
		c0.1,0,0.1,0,0.1,0l0.2,0c0.1,0,0.1,0,0.2,0h0.1c0.1,0,0.1,0,0.2,0c0.3,0,0.8-0.1,1.3-0.2c0.4,0,0.9-0.1,1.6-0.2
		c0.4-0.1,0.9-0.2,1.5-0.4c0.5-0.1,1.1-0.3,1.7-0.4c0.2,0,0.4-0.1,0.6-0.1c0.2,0,0.3,0,0.6-0.1c0.1,0,0.1,0,0.2,0c0.1,0,0.2,0,0.4,0
		h0.1l0.1,0c0.1,0,0.2,0,0.3,0c0.1,0,0.1,0,0.1,0l0.1,0C23,46,23,46,23,46c0.1,0,0.1,0,0.1,0.1c0,0,0,0,0,0.1c0.1,0,0.1,0,0.1,0
		c0,0,0.1,0.1,0.1,0.1c0.1,0,0.1,0.1,0.1,0.2c0.1,0,0.1,0.1,0.1,0.1v0c0.1,0.2,0,0.2,0,0.3c0,0,0,0.1-0.1,0.1v0v0
		c-0.1,0-0.1,0-0.1,0.1l-0.1,0c0,0,0,0,0,0l-0.1,0c-0.1,0-0.1,0-0.1,0c-0.1,0.1-0.1,0.1-0.2,0.2c-0.1,0-0.1,0-0.2,0.1
		c-0.1,0-0.1,0.1-0.2,0.1c-0.1,0-0.3,0.2-0.4,0.3c-0.2,0-0.3,0.1-0.5,0.2c-0.3,0.1-0.6,0.3-0.9,0.4c-1.3,0.5-2.7,1-4.1,1.3
		c-0.1,0-0.2,0.1-0.4,0.1c-4.5,1.1-8.9,0.9-13.2-1.1c-2.8-1.4-3-4.1-2.7-5.7c0.1-0.6,0.2-1.2,0.3-1.9c0.6-1.8,1.1-3.7,1.9-5.7
		C3.2,33.9,4.1,32,5,30.3c0.4-1.1,1.3-2.4,1.7-3c0.4-0.7,1-1.7,1.6-2.6c0.3-0.5,0.6-0.9,0.8-1.3c0.3-0.4,0.6-0.7,0.8-0.9
		c0.1,0,0.1,0,0.1,0c0.1,0,0,0.1-0.2,0.4c-0.1,0.1-0.1,0.1-0.1,0.2c-0.2,0.3-0.3,0.4-0.3,0.5l0.2-0.2l-0.1,0.2
		c-0.3,0.4-0.7,0.9-0.9,1.3c-0.2,0.2-0.2,0.3-0.3,0.5c0.1,0,0.1-0.1,0.1-0.1c0.1,0,0.1-0.1,0.2-0.2c0.2-0.1,0.3-0.4,0.7-1l0.2-0.1
		c0.1-0.1,0.1-0.2,0.2-0.3c0.1-0.2,0.2-0.3,0.3-0.5l0.1,0c-1.6,2.2-3,4.5-4.3,7.1C6.8,28,8.1,25.9,9.4,24c0.1-0.1,0.2-0.4,0.4-0.6
		c0.1-0.1,0.2-0.3,0.2-0.3c0-0.1,0.1-0.3,0.2-0.3c0,0,0,0,0.1,0v0c0,0,0,0-0.2,0.2c0.2-0.2,0.3-0.4,0.6-0.7l0.1-0.2v0.1
		c0.1-0.2,0.2-0.3,0.3-0.6c0.4-0.3,0.7-0.7,0.9-1l0.1,0v0c0.1,0,0,0.1-0.3,0.6c-0.1,0.1-0.1,0.1-0.2,0.2c-0.2,0.1-0.2,0.2-0.3,0.3
		h0.1l-0.1,0.1c0,0,0,0,0,0c0.2-0.3,0.2-0.3,0.2-0.3h0.1v0c0,0-0.1,0-0.1,0.1c0.5-0.6,1.1-1.3,1.9-2c1-1,2-1.9,3-2.6
		c0.3-0.2,0.7-0.5,1.2-0.7c0.3-0.1,0.7-0.3,1.1-0.6c0.4-0.1,0.7-0.3,1.1-0.4l0.1,0c-0.3,0.1-0.8,0.3-1.3,0.6
		c-0.3,0.2-0.6,0.2-0.8,0.4c-0.2,0.1-0.4,0.3-0.7,0.5c-1.2,0.7-2.1,1.5-2.4,1.9c0.1,0,0.1,0-0.1,0.2c-0.9,0.7-1.7,1.6-2.5,2.5
		c-0.8,1-1.6,2-2.3,3.1c-1.6,2.3-2.8,4.5-3.5,6C6,30.9,6,31.1,5.9,31.2c1.5-3.2,3.3-6.1,5.2-8.7c2-2.4,3.8-4.2,5.8-5.5
		c2-1.5,4.1-2.2,6-2.2c0.6,0,1.2,0,1.7,0.2h0.1c0,0,0.1,0.5,0.2,1.2c0,0,0,0,0,0c0.1,0,0.1,0,0.1,0.1c0,0.1,0,0.4,0,0.7
		c0.1,0.2,0.1,0.2,0,0.2c0,0,0,0,0,0.3c0,0,0-0.1,0-0.1h0.1c0-0.1,0-0.2,0-0.4c0-0.3,0-0.6,0-0.9c0-0.1,0-0.3-0.1-0.6
		c0-0.2,0-0.3,0-0.6v0c0.1,0.4,0.1,1,0.2,1.5c0,0.6,0,1.3,0,1.8c0,0,0,0.1,0,0.2c0-0.3,0.1-0.6,0.1-0.9c0.1-0.6,0.1-1.2,0-1.8v-0.1
		h0.1v0v0c0.1,0.3,0.1,0.7,0.1,1.2c0,0.3,0,0.8-0.1,1.2v0c0.1-0.4,0.1-0.8,0.1-1.1h0.1C25.6,17.3,25.5,17.7,25.6,18v-0.2V18z
		 M8.1,44.2C8,44.2,8,44.2,8.1,44.2L8.1,44.2C8,44.2,8,44.2,8.1,44.2L8.1,44.2z M8.5,44.7C8.5,44.7,8.5,44.7,8.5,44.7
		C8.5,44.7,8.5,44.7,8.5,44.7L8.5,44.7L8.5,44.7z M11,47.3c0.1,0,0.2,0.1,0.3,0.1C11.3,47.4,11.1,47.4,11,47.3z M14.9,30.8
		c-0.2,0.3-0.4,0.7-0.8,1.1C14.4,31.5,14.7,31.2,14.9,30.8z M19.9,25.1L19.9,25.1C19.9,25.1,19.9,25.1,19.9,25.1L19.9,25.1z
		 M20.3,25c-0.1,0-0.1,0-0.2,0c0,0-0.1,0.1-0.1,0.1s0.1,0,0.2,0C20.2,25,20.3,25,20.3,25z M25.4,18.9C25.4,19,25.4,19,25.4,18.9
		L25.4,18.9l-0.1,0.4c0.1,0,0.1,0,0.1,0C25.4,19.3,25.4,19.2,25.4,18.9z"/>
	<path class="st0" d="M51.9,18.2c-2,1.2-3.4,4-4.1,5.8c0,0,0,0.1,0,0.2c-0.2,0.5-0.3,0.8-0.3,0.9c0.1-0.3,0.1-0.4,0.1-0.5
		c0-0.1,0-0.2,0.1-0.3c-0.1,0.1-0.1,0.2-0.1,0.3c0,0.1-0.1,0.3-0.1,0.3c0,0,0-0.1,0-0.1c-0.2,0.3-0.2,0.5-0.2,0.6
		c-0.1,0.2-0.2,0.3-0.2,0.6c0,0,0-0.1,0.1-0.3c-0.1,0.1-0.1,0.4-0.2,0.9c0.1-0.6-0.1,0.1-0.2,0.6c0-0.1,0.2-0.5,0.2-0.6
		c-0.1,0-0.1,0.2-0.2,0.4c0,0.1,0,0.3,0,0.3c0,0.1,0,0.1-0.2,0.1c-0.1,0.2-0.1,0.1-0.1-0.1c0-0.3,0.1-0.6,0.1-0.8
		c-0.1,0.3-0.2,0.8-0.2,1c0,0-0.1,0-0.1,0c-0.1,0.6-0.3,1.2-0.6,1.8l0.6,0c1.2-0.2,1.3,0.3,1.3,0.6c-0.1,0.2-0.1,0.3-0.2,0.4
		c-0.3,0.7-0.8,1.6-1.1,2.4c-0.4,0.5-1.1,1.2-2.3,1.7c-1.8,4.6-3.9,8.7-4,9c-2.2,4.7-5,9.4-7,9.4c-1,0-1.3-1.4-1.3-3.4
		c0,0,0,0.2-0.1,0.4c0,0.3-0.1,0.9,0,1.4c0.1,0.3,0,0.6,0.2,0.9c0.2,0.1,0.3,0.3,0.2,0.4c0.1,0.1,0.2,0.2,0.3,0.2
		c0.1,0,0.1,0.1,0.3,0.1c0.2,0,0.3,0,0.4,0c0.2,0,0.3,0,0.4-0.1c0.2,0,0.3-0.1,0.4-0.2c0.4-0.2,0.8-0.4,1-0.6c0-0.1,0.4-0.5,0.8-0.9
		c0.4-0.3,0.7-0.8,1-1.3c0.7-0.9,1.2-1.8,1.5-2.3c-0.1,0.1-0.2,0.3-0.3,0.6c-0.2,0.2-0.4,0.6-0.6,1c0.1-0.3,0.4-0.7,0.6-1.1
		c0.2-0.4,0.4-0.8,0.6-1c0.2-0.2,0.4-0.9,0.7-1.5c0.4-0.6,0.7-1.2,0.7-1.5c1.1-1.9,2-3.7,2.8-5.6c-0.2,0.1-0.2,0.5-0.4,0.8
		c-0.1,0.2-0.1,0.4-0.2,0.5c0,0.1,0,0.2,0,0.2c0.1-0.4,0.4-1.2,0.7-1.8c0.2-0.6,0.4-1.1,0.6-1.3c-0.2,0.4-0.4,0.9-0.6,1.3
		c0.2-0.3,0.4-0.9,0.8-1.6c0.2-0.6,0.4-1.2,0.7-1.7h0.1v0h-0.1h0.1c-0.6,1.5-1.3,3-2,4.8c-0.3,0.9-0.9,1.8-1.2,2.7
		c-0.1,0.2-0.2,0.4-0.3,0.7c-0.2,0.3-0.2,0.5-0.3,0.7c-0.3,0.5-0.5,1-0.7,1.4c-0.5,1-1,2-1.6,3c-0.3,0.5-0.6,0.9-0.9,1.5
		c-0.2,0.4-0.7,0.9-1,1.4c-0.2,0.3-0.3,0.5-0.6,0.8c-0.3,0.2-0.4,0.4-0.8,0.6c-0.1,0.1-0.2,0.2-0.3,0.3c-0.1,0.1-0.3,0.2-0.6,0.3
		c-0.3,0.1-0.3,0.2-0.7,0.2c-0.1,0-0.1,0-0.2,0c0,0-0.1,0-0.2,0h-0.1c0,0,0,0-0.1,0c-0.1,0-0.3,0-0.4,0c-0.2,0-0.3-0.1-0.3-0.3
		c-0.1,0-0.1-0.1-0.3-0.2s-0.2-0.3-0.2-0.4c-0.2-0.3-0.3-0.5-0.2-0.8c-0.1-0.6-0.2-1-0.2-1.5c0,0.1-0.1,0.6,0,0.9
		c0,0.2,0,0.5,0.2,0.8c-0.2,0.1-0.1,0.2,0.1,0.3c0.1,0.1,0.2,0.3,0.2,0.5c0,0.1,0.1,0.2,0.2,0.2c0.2,0.1,0.3,0.2,0.2,0.3
		c0.2,0.1,0.4,0.2,0.6,0.2c0.2,0,0.2,0.1,0.3,0.1h0.1h0.1h0.1c0-0.1,0.1-0.1,0.1-0.1c0.2,0,0.4,0,0.5,0c0-0.1,0.2-0.1,0.3-0.2
		c0.3-0.2,0.6-0.3,0.7-0.4c0.3-0.3,0.6-0.6,0.8-0.8c0.4-0.3,0.5-0.6,0.7-0.9c0.2-0.2,0.6-0.6,0.9-1.1c0.2-0.5,0.6-1.1,1.1-1.7
		c0.7-1.3,1.5-2.9,2.3-4.3c1.3-2.9,2.8-6.1,3.9-9c0.1-0.1,0.1-0.1,0.1-0.1c-0.7,1.8-1.5,3.6-2.2,5.4c-0.4,0.9-0.9,1.8-1.3,2.7
		c-0.2,0.5-0.4,0.9-0.7,1.4s-0.4,0.9-0.7,1.3c-0.2,0.3,0.3-0.3,0.3-0.4c-0.2,0.2-0.3,0.5-0.4,0.9c-0.2,0.3-0.4,0.6-0.4,0.8
		c0.4-0.8,0.9-1.8,1.3-2.5c-0.3,0.7-0.7,1.5-1.2,2.4c-0.2,0.4-0.4,1-0.7,1.5c-0.4,0.6-0.8,1.2-1.2,1.8c0.2-0.3,0.6-0.9,1.1-1.7
		c0.4-0.6,0.8-1.3,1.1-1.8c0.1-0.2,0,0-0.1,0.3c-0.1,0.2-0.3,0.6-0.3,0.7c-0.4,0.8-0.9,1.6-1.3,2.3c-0.3,0.4-0.5,0.7-0.6,1.1
		c-0.3,0.4-0.6,0.7-1,1c-0.2,0.3-0.5,0.6-0.9,0.8c-0.1,0.2-0.5,0.3-0.6,0.5c-0.2,0-0.4,0.1-0.6,0.2c-0.2,0-0.4,0.1-0.8,0.2
		c-0.1,0-0.1,0-0.2,0h-0.1h-0.1h-0.1h-0.1c-0.1,0-0.3,0-0.4,0c-0.2,0-0.3-0.1-0.4-0.2c-0.2,0-0.3-0.1-0.4-0.1
		c-0.2-0.2-0.3-0.3-0.4-0.5c-0.1-0.1-0.2-0.2-0.3-0.3C31,52.3,31,52,30.9,51.9c0-0.2-0.2-0.4-0.2-0.6c0-0.4,0-0.8,0-1.2
		c0.1-0.4,0.1-0.7,0.1-1.1c0.1-0.8,0.2-1.5,0.3-2.3c0.4-1.8,0.8-3.6,1.3-5.4c0-0.2,0-0.4,0.2-0.6c0,0,0.1-0.1,0.1-0.1
		c0.1-0.5,0.2-0.9,0.3-1.3c0.3-0.9,0.8-2.1,1.3-3.6c-0.1,0-0.2,0-0.4,0c-0.6,0.1-1.5,0.2-2.3,0.3c-0.2,0-0.2,0-0.3,0
		c-0.9,2.3-2,4.5-3.1,6.7c-0.7,1.2-1.1,2.3-1.7,3.4c-0.3,0.6-0.6,1.2-0.9,1.8c-0.1,0.2-0.2,0.3-0.2,0.4c-0.1,0.1-1.4,2.3-3,2.4
		c-0.2,0-0.2,0-0.4,0h-0.1l-0.2,0c0,0-0.1,0-0.2,0c-0.1,0-0.1,0-0.2,0l-0.1,0c0,0-0.1,0-0.1-0.1c0,0-0.1,0-0.1,0
		c-0.1-0.1-0.1-0.2-0.2-0.2l-0.1,0c0,0-0.1,0-0.1-0.1c-0.1,0-0.1-0.1-0.1-0.1h-0.1c-0.1-0.2-0.2-0.4-0.2-0.5
		c-0.1-0.2-0.1-0.3-0.1-0.5c-0.2-0.3-0.2-0.6-0.3-0.9c0-0.3,0-0.6,0.1-0.9c0-0.3,0-0.5,0.1-0.9c0-0.6,0.1-1.1,0.2-1.6
		c0.3-2.2,0.8-4.2,1.3-6.3c0.2-0.6,0.4-1.2,0.7-1.8c0.1-0.2,0.1-0.4,0.1-0.6c0.1-0.1,0.1-0.2,0.1-0.3s0.1-0.2,0.1-0.2
		c0.1-0.3,0.2-0.6,0.4-1l0.1-0.5c0.1-0.1,0.2-0.3,0.2-0.4c0.2-0.3,0.2-0.7,0.4-1c0.1-0.3,0.2-0.6,0.2-0.9c0.1-0.2,0.2-0.4,0.2-0.6
		c0.1-0.1,0.1-0.3,0.2-0.4c0-0.3,0.2-0.5,0.3-0.7c0.1-0.3,0.2-0.6,0.3-0.8c0.1-0.6,0.5-1,0.6-1.5c0.1-0.1,0.1-0.3,0.2-0.3
		c0-0.1,0-0.2,0-0.3c0.2-0.1,0.2-0.2,0.3-0.3c0-0.1,0-0.1,0.1-0.1c0,0,0-0.1,0-0.2c0.3-0.4,0.4-0.8,0.6-1.2c0.1-0.1,0.1-0.2,0.3-0.4
		c0,0,0.1-0.1,0.1-0.1s0.1-0.1,0.1-0.1c0-0.2,0.2-0.5,0.3-0.6c0.2-0.2,0.3-0.3,0.4-0.6c0,0,0.1-0.1,0.1-0.1c0-0.1,0.1-0.1,0.1-0.2
		c0.1-0.1,0.2-0.2,0.3-0.3c0,0,0-0.1,0.1-0.2c0,0,0,0,0.1-0.1c0-0.1,0-0.2,0.1-0.3c0.1-0.2,0.1-0.3,0.3-0.3c0.2-0.2-0.1,0.1,0,0
		c0.4-0.6,0.9-1.1,1-1.1c-0.1,0.2-0.1,0.2-0.5,0.4c0,0.1,0.1,0,0.4-0.1c0,0,0-0.1,0-0.1s0,0,0.1,0c0.1-0.1,0.1-0.1,0.1-0.1
		c0,0-0.1,0.1-0.1,0.1s0,0-0.1,0c0,0,0,0,0,0.1c-0.2,0.1-0.3,0.2-0.4,0.4c0.1-0.1,0.2-0.3,0.3-0.3c0.1,0,0.1-0.1,0.1-0.1
		c0,0,0,0,0,0c0.1-0.1,0.2-0.2,0.2-0.3c0.1-0.1,0.2-0.2,0.4-0.3c0,0-0.1,0.1-0.2,0.2c0.1,0,0.1-0.1,0.2-0.2c0.1,0,0.2-0.1,0.3-0.2
		c-0.1,0.1-0.1,0.1,0,0c0.1,0,0.2-0.1,0.3-0.2c0,0-0.1,0-0.1,0.1c-0.1,0.1-0.2,0.1-0.2,0.1h0.1c0.1,0,0.2-0.1,0.2-0.1
		c0.1,0,0.1-0.1,0.1-0.1c0,0,0,0,0.1,0l0.1,0c0.2-0.1,0.1,0,0,0c-0.1,0-0.1,0.1-0.2,0.2c0,0.1-0.1,0.1-0.2,0.1c0.1,0,0.2,0,0.2,0
		c0.1,0,0.1-0.1,0.1-0.1c0.1,0,0.1-0.1,0.2-0.1c0.2,0,0.2,0,0.2,0c0.8-0.7,1.3-0.4,1.3-0.4c2.7,0.2,1.5,5.2-0.6,11.1
		c0.1,0,0.1,0,0.1,0c0-0.1,0.1-0.2,0.1-0.3c0.2-0.6,0.6-1,0.7-1.3c-0.1,0.2-0.1,0.4-0.3,0.9c0.2-0.3,0.2-0.9,0.3-1.2
		c0.1-0.1,0.2-0.4,0.3-0.7c0.1-0.3,0.2-0.7,0.3-0.9c0.4-1,0.6-2,0.7-2.9c0.1,0,0,0.2,0,0.3c0,0.2-0.1,0.4-0.1,0.4
		c0.2-0.3,0.2-0.6,0.3-0.9c0.1-0.3,0.1-0.6,0.1-0.7c-0.1,0.3-0.1,0.5-0.1,0.7c0-0.2,0.1-0.6,0.1-1.1c0.1-0.2,0.1-0.4,0.1-0.6
		c0-0.2,0-0.4,0.1-0.6c-0.1,0.8-0.1,1.8-0.3,2.7c-0.2,1-0.4,2-0.8,3c-0.2,1-0.6,2.1-0.9,3h0.1c0.2-0.7,0.7-2.1,1.2-3.4
		c0.3-1.2,0.6-2.5,0.9-3.7c0.1-0.6,0.2-1.2,0.1-1.8c-0.1-0.3-0.1-0.6-0.1-0.8c0-0.3,0-0.6-0.2-0.8c0-0.1-0.1-0.2-0.1-0.3
		c-0.3-0.2-0.4-0.3-0.4-0.4c-0.2-0.1-0.4-0.2-0.6-0.3c-0.1,0-0.1,0-0.2,0c-0.1,0-0.1,0-0.1,0c-0.1,0-0.2,0-0.2,0
		c0.3,0,0.7,0.1,1,0.3c0.2,0.2,0.6,0.4,0.6,0.6c0.1,0.2,0.2,0.3,0.2,0.5c0,0.3,0.1,0.5,0.1,0.7c0.2,0.1,0.1,0.3,0.2,0.6
		c-0.1,0.3-0.1,0.4,0,0.6c-0.1,0.4-0.1,0.8-0.1,1.2c-0.1,0.8-0.4,1.6-0.7,2.4c-0.1,0.7-0.3,1.5-0.6,2.3c-0.1,0.1,0.1-0.2,0.1-0.3
		c-0.1,0.3-0.3,0.7-0.3,0.9c0.2-0.4,0.4-0.9,0.5-1.4c-0.2,0.8-0.5,1.7-1,3.1c0.2-0.3,0.5-1.3,0.8-1.9c0.1-0.1-0.1,0.5-0.1,0.6
		c-0.1,0.5-0.2,0.9-0.5,1.3c0.7,0,1.2-0.1,1.8-0.2c0.3,0,0.8-0.1,1.2-0.2c0.2-0.8,0.4-1.4,0.6-1.5C42.4,14.6,55,16.2,51.9,18.2z
		 M21.6,42.9c-0.1,0-0.1,0.3-0.2,0.5c0,0.2,0,0.4-0.2,0.6C21.3,44.1,21.4,43.3,21.6,42.9C21.6,42.9,21.6,42.9,21.6,42.9z M26.7,26.9
		c-0.3,0.5-0.8,1.9-1.2,2.7c0.2-0.2,0.3-0.5,0.3-0.7c0.1-0.3,0.2-0.5,0.3-0.6c0.2-0.3,0.2-0.6,0.3-0.8
		C26.5,27.3,26.6,27.1,26.7,26.9z M28.1,24c-0.3,0.6-0.4,0.9-0.7,1.3c-0.1,0.2-0.2,0.3-0.2,0.5c-0.1,0.2-0.2,0.3-0.3,0.5
		C27.3,25.6,27.9,24.6,28.1,24z M33.4,35.3c0.2,0,0.6,0,0.8-0.1v0L32,35.4C32.2,35.4,33.1,35.4,33.4,35.3z M34.2,35.4
		c-0.8,0-1.3,0.2-2,0.3c0.2,0,0.9-0.1,1.7-0.3C34,35.4,34.1,35.4,34.2,35.4z M32.4,31c0,0,0,0,0.1,0C32.4,31,32.4,31,32.4,31z
		 M37.2,29.5c0,0,0.1-0.1,0.1-0.2C37.2,29.4,37.2,29.5,37.2,29.5z M44.8,34.5c-0.1,0-0.1,0.1-0.2,0.1c-0.1,0-0.1,0-0.1,0
		C44.6,34.6,44.7,34.5,44.8,34.5L44.8,34.5z M44.8,34.6L44.8,34.6c-0.1,0-0.2,0.1-0.3,0.1c0,0,0.1,0,0.1,0
		C44.6,34.6,44.7,34.6,44.8,34.6z M44.7,34.7C44.6,34.8,44.6,34.8,44.7,34.7C44.6,34.8,44.6,34.8,44.7,34.7z M44.8,34.5
		C44.8,34.5,44.8,34.5,44.8,34.5C44.8,34.5,44.8,34.6,44.8,34.5c0,0.1,0,0.1-0.1,0.2c0,0,0,0-0.1,0.1c0.1-0.1,0.1-0.1,0.1-0.1
		C44.8,34.6,44.8,34.6,44.8,34.5z M44.8,34.7c-0.1,0-0.1,0-0.1,0C44.7,34.7,44.8,34.7,44.8,34.7L44.8,34.7
		C44.8,34.6,44.8,34.7,44.8,34.7z M44.8,34.7c-0.1,0-0.1,0-0.1,0.1c-0.1,0-0.1,0-0.1,0c0,0,0,0,0.1-0.1
		C44.8,34.7,44.8,34.7,44.8,34.7z M44.8,34.5L44.8,34.5C44.8,34.5,44.8,34.5,44.8,34.5C44.8,34.5,44.8,34.5,44.8,34.5z M44.8,34.6
		C44.8,34.5,44.8,34.5,44.8,34.6C44.8,34.5,44.8,34.5,44.8,34.6L44.8,34.6z M44.8,34.7C44.9,34.7,44.9,34.6,44.8,34.7
		c0.5-0.3,0.8-0.5,1.2-0.7c0.4-0.3,0.7-0.6,1.1-0.9c0.1,0,0.1-0.1,0.1-0.1v0l0.1,0l0.1-0.1c0-0.1,0.1-0.1,0.1-0.2
		c0-0.1,0.2-0.3,0.3-0.5c0.1-0.3,0.2-0.7,0.3-1c0.2-0.3,0.4-0.7,0.6-1.1v-0.1c0.1-0.1,0.1-0.2,0-0.3c0-0.1-0.1-0.2-0.2-0.3
		c-0.1-0.1-0.1-0.2-0.4-0.3c-0.1-0.1-0.2-0.2-0.3-0.2c-0.3-0.1-0.6-0.1-0.8-0.1c-0.1,0-0.3,0-0.5,0c0.2,0,0.4,0,0.6,0
		c0.2,0,0.3,0,0.4,0c0.1,0,0.3,0,0.4,0.1c0.2,0,0.3,0.2,0.4,0.3c0.1,0.1,0.1,0.2,0.2,0.3c0.2,0.1,0.1,0.2,0.2,0.3c0,0.1,0,0.2,0,0.2
		V30c-0.3,0.8-0.7,1.7-1.2,2.5c-0.1,0.1-0.1,0.2-0.2,0.3l-0.1,0v0v0l-0.1,0.1c-0.1,0-0.1,0-0.1,0.1c-0.3,0.3-0.5,0.4-0.7,0.6
		C45.9,34.2,45.4,34.5,44.8,34.7z M44.8,34.5c0.3-0.1,0.5-0.2,0.8-0.3C45.3,34.3,45,34.4,44.8,34.5z M44.8,34.7
		C44.8,34.6,44.8,34.6,44.8,34.7c0-0.1,0.1-0.1,0.1-0.2C44.9,34.5,44.9,34.6,44.8,34.7L44.8,34.7z"/>
	<path class="st0" d="M70.2,48.7c0,0.1,0.1,0.1,0.1,0.2c-0.1,0-0.2,0-0.2,0.1v0l-0.1,0l-0.1,0v0v0.2c-0.1,0.1-0.1,0.2-0.4,0.3
		c-0.1,0.2-0.1,0.4-0.3,0.6c-0.2,0.4-0.6,0.7-0.9,1.1c-0.4,0.3-0.8,0.7-1.2,1c-0.6,0.3-1.1,0.6-1.6,0.9c-0.6,0.2-1.2,0.4-1.8,0.5
		c-0.3,0-0.6,0.1-0.9,0.1c-0.1,0-0.2,0-0.2,0h-0.1h-0.1h-0.1c-0.2,0-0.3,0-0.4,0h-0.1c0,0,0,0,0.1,0c-0.1,0-0.1,0-0.2,0h-0.1l-0.1,0
		c-0.2,0-0.2,0-0.4,0c-0.2,0-0.3,0-0.4,0v0h-0.1c-0.4-0.1-0.9-0.2-1.4-0.4c-0.4-0.2-0.8-0.4-1.1-0.7c-0.5-0.3-0.7-0.5-1-0.8
		c-0.1-0.3-0.4-0.6-0.6-0.9c-0.2-0.7-0.4-1.4-0.6-2.1c-0.1-0.7-0.1-1.4,0.1-2.1c0.1-0.2,0-0.1-0.1,0.1c0,0.1,0,0.3,0,0.4
		c0-0.2,0-0.6,0.1-0.9c0-0.3,0.1-0.7,0.1-0.9c-0.1,0.4-0.1,0.9-0.2,1.4c0,0.5-0.1,1-0.1,1.4c-0.1-0.8,0.1-1.6,0.2-2.6
		c0.2-0.9,0.4-2.1,0.9-3.6c-0.1,0.4-0.4,1.1-0.6,1.8c-0.2,0.7-0.4,1.5-0.6,2c-0.1,0.2,0,0-0.1-0.3c0.1-0.3,0.2-0.6,0.2-0.8
		c0.2-0.9,0.3-1.7,0.7-2.4c0.2-0.8,0.4-1.5,0.7-2.3c0,0,0.1-0.1,0.2-0.2c-0.2,0-0.4,0-0.6,0.1c-0.7,0.1-1.3,0.2-2,0.3
		c-0.1,0-0.2,0-0.3,0l-0.2,0.2c-0.3,0.3-0.6,0.6-0.9,0.9c-0.7,0.8-1.5,1.6-2.3,2.4c-0.8,0.8-1.7,1.5-2.5,2.3c-0.3,0.3-0.7,0.7-1.2,1
		c-0.3,0.3-0.8,0.7-1.4,1c-0.3,0.1-0.6,0.3-0.8,0.4c-0.3,0.1-0.7,0.2-1.1,0.2c-0.1,0-0.1,0-0.1,0h-0.1c-0.1,0-0.1,0-0.1,0
		c-0.1,0-0.1,0-0.1,0c-0.1,0-0.1,0-0.2,0c-0.1,0-0.1,0-0.1,0v0h-0.1h-0.1L43.5,48h-0.1l-0.1,0l-0.1,0l-0.1-0.1l-0.1,0l-0.1,0
		L43,47.6c0.1-0.1,0-0.2-0.1-0.3c-0.1-0.1-0.1-0.2-0.2-0.2c0.1-0.1,0.1-0.2,0.1-0.2c-0.1-0.1-0.1-0.2-0.1-0.2c0-0.1,0-0.2,0.1-0.3
		c0-0.3,0-0.5,0.1-0.8c0.2-0.6,0.4-1.1,0.7-1.5c0.4-0.9,0.9-1.6,1.5-2.1c0.2-0.3,0.4-0.6,0.7-0.9c0.2-0.2,0.2-0.2,0.3-0.3
		c0-0.1-0.1,0,0,0c0.1-0.2,0.2-0.4,0.3-0.4c0,0.1,0,0.1-0.1,0.2c-0.1,0.1,0.2-0.1,0.2-0.1c0,0-0.1,0.1-0.2,0.2
		c0.2-0.2,0.3-0.2,0.4-0.4c0,0,0,0-0.1,0.1c0.1,0,0.1-0.1,0.2-0.2c-0.1,0.1,0,0,0.1-0.1c0,0,0,0-0.1,0.1c0.1,0,0.1-0.1,0.1-0.1
		c0.1,0,0.1,0.1,0,0.2c0.1,0,0.1-0.2,0.1-0.2c0.2-0.3,0.3-0.4,0.3-0.4c0.1-0.1,0.2-0.2,0.2-0.3c-0.1,0-0.1,0-0.1,0s0.1,0,0.1,0
		c0.3-0.4,0.6-0.8,0.9-1.2c0.4-0.9,1.2-1.8,1.8-2.8c1.5-1.8,3.1-3.6,4.6-5.3c1.5-1.8,3-3.5,4.6-5.1c1-1.1,2.2-2.2,3.3-3.3
		c0.5-0.5,1.2-1.1,2-1.6c0.6-0.6,1.3-1.1,2.1-1.6c0.3-0.3,0.7-0.6,1.2-0.8c0.1-0.1,0.3-0.2,0.7-0.3c0.1-0.1,0.2-0.1,0.4-0.2
		c0.1,0,0.2-0.1,0.3-0.1c0.1,0,0.2,0,0.2,0c0.1,0,0.2,0,0.3,0H70h0.1h0.1c0.1,0,0.1,0,0.1,0c0.1,0,0.1,0,0.2,0c0.1,0,0.2,0,0.3,0.1
		c0.2,0,0.3,0.2,0.4,0.3c0.1,0.1,0.2,0.2,0.3,0.3c0.1,0.1,0.2,0.2,0.2,0.3c0,0.2,0.2,0.4,0.2,0.6C71.8,18.6,72,18.8,72,19
		c-0.1,0.4,0,0.7-0.1,1.1c0,0.3,0.1,0.7-0.2,1c-0.1,0.6-0.2,1.3-0.3,1.9c-0.2,1.1-0.6,2.1-0.8,3.1c-0.2,1-0.6,2-0.8,3
		c-0.4,1.5-0.8,2.8-1.1,3.9c0.2,0,0.3,0,0.6,0.1c0.1,0,0.2,0.1,0.3,0.1c0.1,0,0.2,0.1,0.3,0.2c0.2,0.1,0.4,0.3,0.4,0.4
		c0,0.1,0,0.2,0,0.3c0.1,0,0,0,0,0l-0.1,0c0,0,0.1-0.1,0,0v0v0l0.1,0c0,0,0,0.1-0.1,0.1c-0.1,0-0.1,0.1-0.1,0.1l-0.1,0l-0.1,0
		c0.1,0.1,0,0.2-0.1,0.3c-0.1,0.1-0.3,0.2-0.4,0.3c-0.1,0-0.2,0.1-0.2,0.2c0,0-0.1,0.1-0.1,0.1c0.1,0,0,0.1-0.1,0.1
		c-0.1,0-0.2,0.1-0.3,0.1c-0.3,0.2-0.6,0.4-0.8,0.6c-0.2,0-0.3,0.1-0.4,0.1c-0.2,0.8-0.3,1.7-0.4,2.5c0,0.5-0.2,0.8-0.1,1
		c-0.1,0.2-0.1,0.4-0.1,0.8c-0.1,0.3-0.1-0.3-0.1-0.2C67,41.2,67,41.8,67,42.2c0,0.4,0,0.7-0.1,0.8c-0.1-0.2-0.1-0.3-0.1-0.4
		C66.9,42.4,67,42.3,67,42c-0.1-0.1,0,0.1,0,0.3c-0.1,0.3-0.1,0.6-0.1,0.6c-0.1-0.3-0.1-0.7,0-1.3c0,0.6-0.1,0.9-0.1,1.2
		c0,0.2,0.1,0.3,0.1,0.5c0,0.2,0.1,0.4,0.1,0.7c0,0-0.1-0.1-0.1-0.3c-0.1,0.1,0.1,0.4,0.2,0.8c-0.2-0.5,0,0.1,0.1,0.6
		c0,0-0.1-0.1-0.1-0.2c-0.1-0.1-0.1-0.3-0.1-0.3c0,0,0,0.2,0.1,0.4c0.1,0.1,0.1,0.2,0.1,0.3c0,0.1,0,0.1,0,0.1
		c0.1,0.1,0.1,0.1,0.1,0.1c-0.1,0-0.2-0.1-0.2-0.2c-0.1-0.2-0.3-0.5-0.3-0.7c0.1,0.1,0.1,0.3,0.2,0.5c0,0.2,0.1,0.3,0.2,0.4
		c-0.1,0.1-0.1,0.1,0,0c0.3,0.6,0.7,1,1.2,1.4v0v0c0,0,0.1,0,0.2,0l0.1,0c0,0-0.1-0.1-0.1-0.2c0,0,0.1,0.1,0.1,0.2s0.1,0,0.1,0
		c0.1,0,0.2,0.1,0.2,0.1c0.3,0.2,1.1,0.8,0.5,1.9c-0.9,1.3-2.8,4.2-6.7,4.2c-0.2,0-0.4,0-0.6,0c-0.1,0-0.2,0-0.3,0
		c-0.3,0-0.6-0.1-0.8-0.1c-3.8-0.7-5.8-4.2-2-13.7c0,0,0,0-0.1,0c0,0-0.1,0.1-0.1,0.1c-0.2,0.5-0.6,1.5-0.9,2.5
		c-0.3,0.5-0.4,1.1-0.5,1.5c-0.1,0.5-0.2,0.9-0.2,1.1c0-0.2,0-0.3,0.1-0.6c0.1-0.3,0.2-0.7,0.3-1.1c-0.1,0.3-0.2,0.7-0.3,1.2
		c-0.1,0.4-0.2,0.8-0.2,1c-0.1,0.3-0.2,0.9-0.3,1.6c0,0.3-0.1,0.7,0,1c-0.1,0.3-0.1,0.6,0,0.7c0,0.5,0.1,1,0.1,1.5
		c0.2,0.5,0.4,0.9,0.6,1.4c0.3,0.5,0.6,0.9,0.9,1.2c0.6,0.3,1,0.6,1.5,0.9c0,0-0.2-0.1-0.4-0.2c-0.1,0-0.3-0.2-0.4-0.3
		c-0.2-0.1-0.3-0.2-0.4-0.3c-0.2-0.1-0.3-0.1-0.3-0.1c0.4,0.2,0.7,0.5,1.1,0.7c0.5,0.2,1.1,0.3,1.5,0.5H61c0.2,0,0.3,0,0.5,0
		c0.1,0,0.3,0,0.4,0.1H62c0.1,0,0.1,0,0.1,0c0.2,0,0.2,0,0.3,0c-0.1,0-0.2,0-0.2,0c0,0,0,0-0.1,0c0.1,0,0.1,0,0.1,0
		c-0.1,0-0.1,0-0.2,0h-0.1c-0.2,0-0.3,0-0.5,0c-0.1,0-0.3,0-0.4,0l-0.1,0c-0.2,0-0.3,0-0.6-0.1c0.2,0,0.4,0.1,0.6,0.2H61
		c0.1,0,0.3,0,0.4,0c0.2,0,0.4,0,0.5,0.1h0.1c0.1,0,0.1,0,0.2,0s0.2,0,0.3,0c0.1,0,0.1,0,0.2,0c0.1,0,0.1,0,0.2,0h0.1h0.1
		c0.1,0,0.1,0,0.1,0c0.1,0,0.2,0,0.3,0c0.5,0,0.9-0.1,1.4-0.2c0.4-0.1,0.8-0.3,1.2-0.5c0.3-0.2,0.7-0.3,0.9-0.5
		c-0.2,0.2-0.7,0.4-1.1,0.6c-0.3,0.2-0.7,0.3-1.2,0.4c-0.4,0.1-0.8,0.2-1.3,0.2c-0.2,0-0.4,0-0.6,0h-0.1h-0.1c-0.1,0-0.1,0-0.2,0
		c-0.1,0-0.2,0-0.3,0H62H62c-0.1,0-0.1,0-0.2,0h-0.1c-0.1,0-0.3,0-0.3-0.1c-0.2,0-0.4,0-0.5,0h-0.1c-0.6-0.1-1.1-0.3-1.6-0.4
		c-0.4-0.2-0.8-0.5-1.2-0.8c-0.3-0.3-0.6-0.6-0.8-1c-0.3-0.4-0.4-0.8-0.6-1.2c-0.3-0.8-0.4-1.6-0.3-2.5c-0.1-0.9,0.1-1.7,0.3-2.6
		c0.4-1.8,0.9-3.5,1.6-5.2c0.1-0.1,0.1-0.2,0.1-0.3h-0.1c-0.2,0.4-0.3,0.8-0.5,1.2c-0.2,0.6-0.5,1.7-1,3.1c-0.1,0.7-0.3,1.5-0.4,2.2
		c-0.1,0.8-0.2,1.6-0.2,2.4c0.1,0.6,0.3,1,0.4,1.6c0.2,0.5,0.3,1,0.7,1.5c0.4,0.5,0.8,0.9,1.4,1.2s1.3,0.6,2.1,0.7h0.1H61
		c0.1,0,0.2,0,0.3,0c0.2,0,0.3,0,0.4,0.1h0.1h0.1c0.1,0,0.1,0,0.2,0s0.2,0,0.2,0h0.2h0.1h0.1c0.2,0,0.5,0,0.7,0
		c0.4,0,0.9-0.1,1.4-0.3c0.4-0.1,0.9-0.3,1.2-0.5c0.4-0.2,0.9-0.4,1.1-0.6c0.7-0.4,1.3-0.9,1.7-1.4c0.4-0.5,0.7-1,1.2-1.5
		c0.1-0.1,0.1-0.1,0-0.2l0.1-0.1l0.1,0v0l0.1-0.1c0.1,0,0.1,0,0.1-0.1c-0.1-0.1-0.1-0.2,0-0.3c0.1-0.1,0.1-0.3,0.1-0.5
		c-0.1-0.1-0.1-0.3-0.2-0.4c0-0.3-0.3-0.5-0.3-0.6c-0.2-0.2-0.4-0.3-0.6-0.4c0.2,0.1,0.4,0.3,0.6,0.4c0.1,0.2,0.3,0.3,0.4,0.6
		c0.1,0.3,0.2,0.5,0.1,0.7C70.4,48.4,70.3,48.6,70.2,48.7z M44.9,42.6c-0.1,0.1-0.2,0.3-0.2,0.5c-0.2,0.2-0.3,0.4-0.3,0.6
		C44.5,43.3,44.8,43,44.9,42.6z M45.5,47.7c-0.1,0-0.2,0-0.2,0c-0.1,0-0.1,0-0.1,0s0,0-0.1,0c0,0,0.1,0,0.2,0
		C45.4,47.7,45.5,47.7,45.5,47.7c0.1,0,0.2-0.1,0.2-0.1C45.7,47.6,45.5,47.6,45.5,47.7z M45.8,41.5c-0.2,0.2-0.3,0.3-0.3,0.5
		c-0.2,0.1-0.2,0.3-0.3,0.4C45.4,42.1,45.6,41.7,45.8,41.5z M53.4,32.9c-0.1,0.1-1.1,1.3-1.6,1.9c-0.1,0.2,1-1.2,1.5-1.8
		C53.4,33,53.4,33,53.4,32.9z M57.9,39.1c-0.4,0.1-1,0.2-1.5,0.3c-0.6,0-1.2,0.1-1.8,0.2h0.2c0.7,0,1.2-0.1,1.9-0.2
		C57,39.3,57.5,39.2,57.9,39.1L57.9,39.1z M54.9,39c0.4,0,0.8-0.1,1.2-0.1c0,0,0,0,0,0C55.8,39,55.3,39,54.9,39L54.9,39z M58.4,34.7
		c0.3,0,0.4,0,0.7-0.1c0.1,0,0.2-0.1,0.3-0.1c0.6-0.1,1.4-0.3,2.1-0.4l-0.1,0c-0.9,0.2-2,0.3-2.8,0.6c0.4-0.1,0.8-0.2,1.2-0.3
		c1.1-0.2-0.2,0-0.4,0.1c-0.2,0-0.4,0.1-0.8,0.2L58.4,34.7z M58.6,39L58.6,39C58.6,39,58.6,39,58.6,39z M58.7,34.4
		c0.9-0.2,1.7-0.4,2.7-0.6c0.1,0,0.2,0,0.2,0l1.1-3.2l1.5-3.2C64.1,27.4,61.7,30.5,58.7,34.4z M59.2,38.8
		C59.2,38.8,59.2,38.8,59.2,38.8C59.2,38.9,59.2,38.9,59.2,38.8L59.2,38.8z M67.1,36.5L67.1,36.5C67.2,36.5,67.2,36.5,67.1,36.5
		C67,36.5,67,36.5,67.1,36.5C67.1,36.5,67.1,36.5,67.1,36.5z M67,36.9L67,36.9L67,36.9z M67.7,33.4L67.7,33.4l0.1,0L67.7,33.4
		L67.7,33.4z M67.9,33c0.1-0.3,0.1-0.6,0.2-0.8C68,32.5,68,32.8,67.9,33z M67.9,36.1c0.1-0.1,0.4-0.2,0.6-0.3
		c0.2-0.1,0.4-0.3,0.6-0.5c0.3,0,0.3,0,0.3-0.1l0.1,0c0.1-0.1,0.1-0.1,0.2-0.2c0,0,0-0.1,0.1-0.1c0,0-0.1-0.1,0-0.1
		c0,0,0.1,0,0.1-0.1v0h0.1c0.1,0,0.1,0,0.1-0.1c0,0,0,0,0-0.1l-0.1,0v-0.1v0l0.1,0c0.1,0,0.1,0,0.1-0.1c-0.1,0-0.1-0.1-0.1-0.2
		c0-0.1-0.1-0.2-0.1-0.3c-0.1,0-0.2-0.1-0.3-0.1c-0.2-0.1-0.3-0.1-0.5-0.2c-0.1,0-0.3,0-0.4,0v0c0.1,0,0.2,0,0.3,0
		c0.1,0,0.3,0,0.4,0.1c0,0,0.1,0,0.1,0h0.1l0.1,0c0.1,0,0.1,0,0.1,0c0.1,0,0.1,0,0.1,0.1c0.1,0.1,0.1,0.2,0.2,0.3
		c0,0-0.1,0.1-0.1,0.1v0v0v0l0.1,0c0,0,0,0.1,0,0.1c-0.1,0-0.2,0.1-0.2,0.1c0,0,0,0.1-0.1,0.1c0,0,0.1,0.1,0,0.1v0l-0.1,0l-0.1,0.1
		c0,0,0,0,0,0l-0.1,0.1c0,0-0.3,0.1-0.4,0.2l-0.1,0.1c-0.1,0-0.1,0-0.1,0c-0.1,0-0.1,0.1-0.2,0.1C68.4,35.8,68.1,36,67.9,36.1
		L67.9,36.1z M68.4,31c0.3-1.2,1.1-4,1.5-5.5C69.4,27.3,68.8,29.4,68.4,31z"/>
	<path class="st0" d="M97.3,18.6c-0.1,0-0.1,0.1-0.1,0.1l0.1-0.3h0.1c0,0.1-0.1,0.3-0.1,0.4l0.1-0.1L97.2,19c0,0.1,0,0.1,0.1,0.2
		c-0.1,0.1-0.1,0.2-0.1,0.3h0.1c0,0.1-0.1,0.3-0.2,0.3c0,0.1,0,0.3,0,0.4c-0.1,0.3-0.2,0.6-0.3,0.8c0,0,0.1,0.1,0.1,0.3
		c0,0,0,0,0.1,0c0,0,0,0-0.2,0.6c-0.1,0.1-0.1,0.2-0.2,0.2c0,0.1,0,0.1,0,0.1c0.1,0,0.1,0,0.1,0.1c0,0.2,0.1,0.3,0.1,0.3
		c-0.1,0.1-0.1,0.3-0.2,0.5c0,0,0,0,0,0c0,0,0.1-0.1,0.1-0.1h0.1c-0.1,0.3-0.2,0.7-0.3,1c0.1,0,0.1,0.1,0.1,0.2
		c-0.1,0.5-0.3,1-0.3,1.2c0,0,0,0.2,0.1,0.3c0,0.1-0.1,0.3-0.1,0.4c-0.2,0.1-0.2,0.2-0.2,0.3c0,0,0,0.1-0.1,0.3l-0.1,0.4
		c-0.1,0.9-0.2,1.8-0.5,2.7c-0.2,0.8-0.4,1.8-0.8,3c0,0.3-0.1,0.3-0.2,0.4c0,0,0,0.1,0,0.2c-0.4,1.5-0.9,3.1-1.5,4.6
		c-0.6,1.8-1.2,3.5-1.7,5c-0.6,1.1-0.8,2-1.4,2.8c-0.2,0.6-0.5,1-0.7,1.5c-0.3,0.3-0.4,0.4-0.5,0.7c-0.1,0.3-0.4,0.6-0.6,0.8
		c-0.2,0.3-0.3,0.6-0.6,0.8c-0.2,0.2-0.4,0.4-0.7,0.7c-0.3,0.3-0.7,0.5-1,0.6c-0.1,0.1-0.2,0.1-0.3,0.1c-0.1,0.1-0.2,0.1-0.2,0.2
		c-0.2,0-0.3,0-0.5,0.1c-0.1,0-0.1,0-0.2,0h-0.1h-0.1h-0.1c-0.1,0-0.1,0-0.1,0h-0.1l-0.2,0l-0.1-0.1h-0.1c0,0-0.1-0.1-0.1-0.2
		c-0.1,0-0.1,0-0.1,0c0,0-0.1,0-0.1,0c-0.1,0-0.1-0.1-0.2-0.1c-0.1,0-0.2-0.1-0.2-0.1c0,0,0-0.1-0.1-0.1c0,0-0.1,0-0.1-0.1
		c-0.1-0.1-0.1-0.1-0.1-0.1v0c-0.1,0-0.2-0.2-0.2-0.2v0c0,0-0.1,0-0.1-0.1v-0.1c-0.1,0-0.1,0-0.1-0.1l-0.1-0.1c0,0-0.1,0-0.1,0
		c0,0,0.1-0.1,0.1-0.2l-0.1,0c0,0-0.1-0.1-0.1-0.2l-0.1-0.1l0.1-0.1c-0.1-0.2,0-0.5-0.1-0.9c-0.1-0.3,0-0.6,0.1-0.9
		c-0.1-0.3-0.1-0.5-0.1-0.7c-0.2-0.9-0.3-1.9-0.3-3.1c-0.1-1.1-0.2-2.1-0.2-3.3c-0.1-1.8,0-3.6,0.2-5.5c-0.2,0.4-0.3,0.9-0.4,1.3
		l-0.3,0.6l-0.5,1.7l-0.7,1.7l-0.3,1.5l-0.5,1.3c-0.1,0.1-0.1,0.2-0.2,0.3l-0.4,1.1c-0.1,0.2-0.2,0.4-0.3,0.6L78,44.9l-0.2,0.4
		L77.6,46c0,0.2-0.2,0.4-0.3,0.5v0.1c-0.5,0.9-0.9,1.9-1.5,2.8l-0.1,0.2c-0.2,0.4-0.2,0.5-0.5,0.8c0,0.1-0.1,0.1-0.1,0.1l-0.1,0
		c0,0-0.1,0.1-0.1,0.2c0.1,0.2-0.1,0.3-0.2,0.4c-0.2,0.4-0.3,0.4-0.3,0.4h-0.1h0.1c0,0,0-0.1,0.1-0.1c-0.1,0-0.1,0-0.1,0.1h-0.1v0
		c0,0-0.1,0.1-0.1,0.1c-0.1,0-0.1,0.1-0.1,0.2v0c-0.1,0-0.1,0.1-0.2,0.2H74l-0.2,0.3v0c-0.1,0-0.1,0-0.1,0c-0.1,0-0.1,0-0.1,0
		c-0.1,0-0.1,0.2-0.1,0.3l-0.1,0c-0.1,0-0.1,0-0.1,0c-0.1,0-0.1,0.1-0.1,0.1v0c0,0,0,0,0-0.1c0,0,0,0,0.1,0h-0.1c0,0,0,0,0,0
		c-0.1,0-0.1,0-0.1,0c-0.5,0.3-0.8,0.5-1,0.5c-0.1,0-0.2,0-0.2-0.1c-0.6,0-1-0.3-1.5-0.8c-0.6-1.1-0.6-3.2,0.1-6.3
		c0.2-1.8,0.9-3.9,1.8-6.3c-0.1,0.3-0.3,0.7-0.5,1.2c-0.1,0.2-0.2,0.4-0.2,0.6c-0.1,0.3-0.3,0.7-0.3,0.8c-0.1,0.1-0.1,0.2-0.1,0.3
		c0,0.2-0.1,0.6-0.2,0.9c-0.2,0.4-0.2,0.8-0.2,1c-0.4,1.3-0.7,2.4-0.8,3.5h-0.1c0,0-0.1,0.1-0.1,0.2c-0.1,0.2-0.1,0.3-0.1,0.5
		c0,0.2,0.1,0.3,0.1,0.4h-0.1c-0.1,0.2-0.1,0.3-0.1,0.4c-0.1,0.3,0,0.6-0.1,0.9c0.1,0.3,0.2,0.5,0.2,0.7h-0.1
		c-0.2-0.5-0.2-1-0.2-1.6c0.1-0.5,0.1-1,0.2-1.7c0.2-1.1,0.6-2.4,0.8-3.6c0.3-1,0.7-2.1,0.8-3.3c-0.2,0.3-0.2,0.7-0.2,1.1
		c-0.3,0.9-0.5,1.8-0.7,2.7c-0.2,0.7-0.4,1.4-0.6,2.1c-0.3,0.8-0.3,1.6-0.3,2.2c-0.2,0.8-0.1,1.5,0.1,2.2c0.1,0.3,0.2,0.6,0.2,0.9
		c0.2,0.3,0.4,0.6,0.6,0.8c0.2,0.2,0.4,0.3,0.7,0.5c0.1,0.1,0.3,0.2,0.6,0.2l0.1,0c-0.3,0-0.6-0.1-0.6-0.2c-0.2-0.1-0.4-0.2-0.6-0.3
		c-0.4-0.3-0.7-0.6-0.9-1.2c-0.1-0.3-0.2-0.8-0.3-1.4c0-0.4,0-0.9,0.1-1.4c0.1-0.9,0.1-1.8,0.5-2.9c0.1-0.6,0.3-1.2,0.4-1.9h-0.1
		c0.2-0.5,0.4-1,0.5-1.5c0-0.3,0.1-0.6,0.2-0.9c-0.1,0.3-0.2,0.5-0.2,0.7c0,0.1-0.1,0.2,0,0.3c-0.1,0-0.1,0-0.1,0h-0.1
		c0,0-0.1-0.1-0.1-0.4c0-0.1,0.1-0.3,0.1-0.3c0.2-0.3,0.2-0.4,0.2-0.7c0.2-0.7,0.3-1.3,0.4-2c0.3-0.7,0.6-1.5,1-2.3
		c0.3-0.9,0.7-1.8,1.1-2.7c1.3-2.4,2.6-5.1,4.1-7.7c0.7-1.4,1.5-2.7,2.1-3.9c0.5-0.6,0.7-1.2,1.2-1.8c0.4-0.7,0.8-1.4,1.3-1.9
		c0.1-0.3,0.2-0.5,0.4-0.7c0,0,1.6-2.4,3.7-1.7c2.2,0.7,2.2,1.5,2.2,3.9c0,0,0.1,0.1,0.1,0.2c0,0.1-0.1,0.2-0.1,0.3
		c0,0.3-0.1,0.5-0.1,0.6c0.1,0.1,0.1,0.3,0.2,0.4c0,0,0-0.1,0-0.1c0.1,0,0.1,0-0.1,0.6c0,0,0,0.1,0,0.2s0,0.1,0,0.1s0,0.1,0.1,0.1
		c0,0.1-0.1,0.2-0.1,0.3c-0.1,0.2-0.1,0.3,0,0.4c0,0,0,0,0,0c0,0,0-0.1,0-0.1h0.1c0.1,0.3,0,0.7-0.1,1.1c0,0,0,0.1-0.1,0.2v0
		c0.1,0.3,0.1,0.8,0.1,0.9c0,0.1,0,0.3-0.1,0.4c0,0.1,0,0.3-0.1,0.4c0.1,0.2,0.1,0.2,0.1,0.3c0,0,0.1,0.1,0.1,0.3
		c-0.1,0.5,0,1.1,0.1,1.6c0.2-0.4,0.3-0.9,0.4-1.2c0.4-0.8,0.7-1.4,1-1.8l0.2-0.2c0.2-0.4,0.3-0.8,0.5-1.2c0.2-0.4,0.4-1,0.7-1.2
		c0.1,0,0.1,0,0.1,0h0.1c-0.1,0-0.1,0.1-0.2,0.3c0.1,0,0,0.2,0,0.2l0.1-0.1l-0.1,0.1c0,0.1-0.1,0.3-0.2,0.4
		c-0.1,0.2-0.3,0.5-0.4,0.6c0.1-0.1,0.2-0.3,0.5-0.8h0.1c0.1-0.1,0.1-0.2,0.2-0.3c0-0.1,0-0.1,0.1-0.2h0.1c-0.5,1-0.9,1.8-1.5,2.7
		c0.5-0.7,0.8-1.5,1.3-2.1l-0.1,0c0.1-0.1,0.2-0.3,0.3-0.5c0.1-0.1,0.1-0.2,0.1-0.2c0.1,0,0.1,0,0.1,0l-0.1,0
		c0.1-0.1,0.2-0.2,0.3-0.3l0.1-0.1l-0.1,0c0.1,0,0.1-0.1,0.1-0.1c0-0.3,0.3-0.6,0.4-0.8h0.1c0,0-0.1,0.1-0.4,0.6h0.1l-0.1,0
		c0.1-0.1,0.1-0.1,0.1-0.1v0c0.2-0.2,0.4-0.5,0.6-0.8l0.1-0.3c0.6-0.7,0.9-1.2,1.2-1.7c0.1-0.1,0.1-0.2,0.2-0.3c0,0,0.1-0.1,0.1-0.2
		c0.2-0.3,0.4-0.6,0.7-0.9h0.1c-0.2,0.2-0.4,0.7-0.8,1.3c-0.3,0.4-0.7,0.9-0.8,1.2v0c0,0,0,0,0,0.1c-0.3,0.4-0.5,0.8-0.8,1.3
		c1.9-3.2,3.5-5.4,4.1-5.5h0.1h-0.1c0,0,0.1,0.3,0.1,0.6c0,0,0,0,0,0h0.1h0.1h0.1h-0.1h0.1c0-0.1,0.1-0.3,0-0.5h0.1
		c0.1,0.4-0.2,1-0.3,1.5L97,19.2c0.1-0.4,0.2-0.8,0.4-1.3v0h0.1v0C97.5,18,97.3,18.3,97.3,18.6z M70.7,43.9
		c-0.1,0.1-0.2,0.2-0.2,0.3C70.6,44.1,70.6,44,70.7,43.9z M90.7,26.7c-0.2,0.6-0.4,1.1-0.7,1.5c0,0-0.1,0.1-0.1,0.1
		C90.1,27.9,90.5,27.3,90.7,26.7z M92.1,39.1c-0.1,0-0.1,0.1-0.2,0.2c0,0,0.1-0.1,0.1-0.1C92.1,39.2,92.1,39.1,92.1,39.1z
		 M97.3,17.8L97.3,17.8L97.1,18l-0.1,0c-0.1,0-0.1,0-0.2,0.1c0.2,0,0.2,0,0.1,0c0.1,0,0.1,0,0.1,0.3c0,0.1,0,0.1,0,0.2
		c0,0,0,0-0.1,0.1H97C97.1,18.4,97.1,18.2,97.3,17.8z M97.1,19.7c0,0,0.1-0.1,0.1-0.2C97.2,19.6,97.2,19.6,97.1,19.7z"/>
</g>
</svg>
